<?xml version="1.0" encoding="iso-8859-1"?>
<!-- Uploaded to: SVG Repo, www.svgrepo.com, Generator: SVG Repo Mixer Tools -->
<svg fill="#000000" height="800px" width="800px" version="1.1" id="Layer_1" xmlns="http://www.w3.org/2000/svg" xmlns:xlink="http://www.w3.org/1999/xlink" 
	 viewBox="0 0 512 512" xml:space="preserve">
<g>
	<g>
		<path d="M460.662,89.741c-0.775-9.097-8.796-15.85-17.872-15.069c-66.441,5.652-75.654-9.007-127.579-46.768
			c-22.353-16.257-42.059-14.844-54.656-10.793c-4.645,1.494-9.062,3.576-13.257,6.105L230.134,9.039
			C223.079,3.211,214.152,0,204.999,0c-9.154,0-18.081,3.211-25.137,9.039L65.609,103.416c-9.108,7.524-14.331,18.616-14.331,30.431
			v338.684c0,21.764,17.706,39.469,39.469,39.469h228.503c21.763,0,39.469-17.706,39.469-39.469V133.846
			c0-11.814-5.223-22.906-14.334-30.431L276.694,47.5c4.756-0.163,11.009,1.275,19.072,7.139
			c51.965,37.798,69.841,59.782,149.826,52.973C454.689,106.838,461.435,98.837,460.662,89.741z M227.212,113.023
			c0,12.249-9.966,22.214-22.214,22.214c-12.249,0-22.214-9.966-22.214-22.214c0-8.591,4.91-16.042,12.064-19.736
			c-3.072,7.291-4.924,12.672-5.542,14.539c-2.87,8.667,1.827,18.019,10.494,20.889c8.663,2.87,18.018-1.826,20.889-10.494
			c1.069-3.227,2.796-7.784,5.069-13.034C226.682,107.628,227.212,110.262,227.212,113.023z M323.329,128.905
			c1.482,1.221,2.331,3.022,2.331,4.94V472.53c0,3.535-2.875,6.41-6.41,6.41H90.747c-3.535,0-6.41-2.875-6.41-6.41V133.846
			c0-1.919,0.848-3.721,2.327-4.942l114.252-94.376c1.469-1.213,3.03-1.468,4.083-1.468c1.052,0,2.613,0.255,4.082,1.468
			l13.416,11.082c-3.343,4.117-6.435,8.416-9.278,12.754c-2.682-0.402-5.427-0.614-8.22-0.614
			c-30.478,0-55.273,24.796-55.273,55.273c0,30.477,24.796,55.273,55.273,55.273c30.477,0,55.273-24.796,55.273-55.273
			c0-15.674-6.568-29.833-17.084-39.902c1.541-2.232,3.139-4.396,4.787-6.464L323.329,128.905z"/>
	</g>
</g>
<g>
	<g>
		<path d="M249.503,224.691c-4.245,0-8.018,1.886-9.906,5.896L156.821,400.62c-0.708,1.415-1.18,3.066-1.18,4.48
			c0,5.896,5.188,12.499,13.206,12.499c4.48,0,8.961-2.358,10.612-5.896l83.013-170.034c0.707-1.415,0.942-3.066,0.942-4.48
			C263.417,229.643,256.106,224.691,249.503,224.691z"/>
	</g>
</g>
<g>
	<g>
		<path d="M154.934,234.359c-20.045,0-35.374,8.491-35.374,31.837v33.488c0,23.348,15.329,31.837,35.374,31.837
			c19.81-0.001,35.375-8.491,35.375-31.837v-33.488C190.31,242.849,174.744,234.359,154.934,234.359z M166.727,299.685
			c0,7.783-4.482,11.32-11.793,11.32c-7.31,0-11.555-3.537-11.555-11.32v-33.488c0-7.782,4.244-11.319,11.555-11.319
			s11.793,3.537,11.793,11.319V299.685z"/>
	</g>
</g>
<g>
	<g>
		<path d="M263.181,310.296c-20.046,0-35.374,8.491-35.374,31.837v33.488c0,23.348,15.328,31.838,35.374,31.838
			c19.81,0,35.374-8.49,35.374-31.838v-33.488C298.555,318.786,282.991,310.296,263.181,310.296z M274.972,375.622
			c0,7.782-4.482,11.319-11.791,11.319s-11.555-3.537-11.555-11.319v-33.488c0-7.782,4.245-11.32,11.555-11.32
			s11.791,3.538,11.791,11.32V375.622z"/>
	</g>
</g>
</svg>